<svg id="Слой_1" data-name="Слой 1" xmlns="http://www.w3.org/2000/svg" viewBox="0 0 300 100"><defs><style>.cls-1{fill:#ec9704;}.cls-2{fill:#583e26;}.cls-3{fill:#9c4a1a;}.cls-4{fill:#f7c815;}.cls-5{fill:#fff;}.cls-6{fill:#a78b71;}.cls-7{fill:#c96a00;}</style></defs><circle class="cls-1" cx="92.87" cy="57.94" r="13.86"/><circle class="cls-2" cx="70.28" cy="43.31" r="29.78"/><circle class="cls-2" cx="77.15" cy="84.38" r="11.29"/><circle class="cls-1" cx="192.95" cy="42.45" r="33.81"/><circle class="cls-1" cx="248.05" cy="54.02" r="22.51"/><circle class="cls-1" cx="267.22" cy="19.19" r="8.42"/><circle class="cls-3" cx="151.81" cy="38.41" r="29.78"/><circle class="cls-3" cx="30.31" cy="16.72" r="5.96"/><circle class="cls-3" cx="222.49" cy="63.89" r="16.43"/><circle class="cls-4" cx="103.6" cy="34.11" r="29.78"/><circle class="cls-4" cx="181.96" cy="61.29" r="29.78"/><circle class="cls-4" cx="49.59" cy="59.62" r="20.7"/><circle class="cls-2" cx="218.28" cy="37.18" r="29.78"/><circle class="cls-2" cx="107.96" cy="68.19" r="13.5"/><circle class="cls-1" cx="133.37" cy="61.29" r="25.42"/><circle cx="59.17" cy="27.05" r="5.06"/><path class="cls-5" d="M66.23,60.86,59.91,35.92h3.4l3,12.62c.74,3.11,1.41,6.21,1.85,8.62h.07c.41-2.48,1.19-5.44,2-8.66l3.33-12.58h3.37l3,12.65c.7,3,1.37,5.93,1.74,8.55h.07c.52-2.74,1.23-5.51,2-8.62l3.3-12.58h3.29L83.29,60.86H79.92l-3.14-13a73.44,73.44,0,0,1-1.63-8.14h-.07a78.34,78.34,0,0,1-1.93,8.14l-3.55,13Z"/><path class="cls-6" d="M96.68,35.92V60.86H93.46V35.92Z"/><path class="cls-5" d="M102.31,35.92h3.22V58.16h10.65v2.7H102.31Z"/><path class="cls-6" d="M119.77,36.25a46.89,46.89,0,0,1,6.85-.52c4.62,0,7.92,1.08,10.1,3.11s3.51,4.92,3.51,9-1.25,7.4-3.59,9.69-6.18,3.59-11,3.59a53.36,53.36,0,0,1-5.85-.29ZM123,58.31a21.4,21.4,0,0,0,3.26.18c6.88,0,10.62-3.85,10.62-10.58,0-5.89-3.3-9.62-10.11-9.62a18.68,18.68,0,0,0-3.77.33Z"/><path class="cls-7" d="M144.41,36.25a31.77,31.77,0,0,1,5.89-.52c3.22,0,5.29.56,6.84,1.82a5.21,5.21,0,0,1,2.07,4.4A5.92,5.92,0,0,1,155,47.43v.07a6.43,6.43,0,0,1,5.14,6.25,6.72,6.72,0,0,1-2.11,5c-1.74,1.59-4.55,2.33-8.62,2.33a39.51,39.51,0,0,1-5-.29Zm3.22,10.22h2.93c3.4,0,5.4-1.78,5.4-4.19,0-2.92-2.22-4.07-5.48-4.07a13,13,0,0,0-2.85.23Zm0,12a17.33,17.33,0,0,0,2.7.15c3.33,0,6.41-1.23,6.41-4.85,0-3.41-2.93-4.81-6.44-4.81h-2.67Z"/><path class="cls-5" d="M177.38,49.17h-9.69v9h10.8v2.7h-14V35.92h13.47v2.7H167.69V46.5h9.69Z"/><path class="cls-5" d="M186.7,53l-2.59,7.85h-3.33l8.48-24.94h3.88l8.51,24.94h-3.44L195.55,53Zm8.18-2.51-2.44-7.18c-.56-1.63-.93-3.11-1.3-4.55h-.07c-.37,1.48-.78,3-1.26,4.51l-2.44,7.22Z"/><path class="cls-4" d="M205.31,36.25a33.81,33.81,0,0,1,6.18-.52c3.44,0,5.67.63,7.22,2a6.2,6.2,0,0,1,2,4.74,6.54,6.54,0,0,1-4.7,6.36V49c1.93.67,3.07,2.44,3.66,5a39.88,39.88,0,0,0,1.93,6.85h-3.33a32.43,32.43,0,0,1-1.67-6c-.74-3.44-2.07-4.73-5-4.85h-3V60.86h-3.22Zm3.22,11.36h3.3c3.44,0,5.62-1.88,5.62-4.73,0-3.22-2.33-4.63-5.73-4.67a13.13,13.13,0,0,0-3.19.3Z"/><path class="cls-4" d="M224.78,56.94a11.37,11.37,0,0,0,5.77,1.63c3.29,0,5.22-1.74,5.22-4.26,0-2.33-1.34-3.66-4.7-5-4.07-1.44-6.59-3.55-6.59-7.07,0-3.88,3.22-6.77,8.07-6.77a11.32,11.32,0,0,1,5.51,1.22l-.89,2.63a10,10,0,0,0-4.73-1.18c-3.41,0-4.7,2-4.7,3.73,0,2.34,1.51,3.48,5,4.81,4.21,1.63,6.36,3.67,6.36,7.33,0,3.85-2.85,7.18-8.73,7.18A12.87,12.87,0,0,1,224,59.64Z"/><path class="cls-6" d="M69.12,52.82c-.38,1.56-.71,3-.93,4.34h-.07c-.44-2.41-1.11-5.51-1.85-8.62l-.38-1.65a21.15,21.15,0,0,0-4.23-4.06l4.57,18H69.6l.63-2.3A20.58,20.58,0,0,0,69.12,52.82Z"/><path class="cls-6" d="M83.77,48.52c-.56,2.25-1.08,4.32-1.52,6.33a27.72,27.72,0,0,0,2.17,2l5.94-20.94H87.07Z"/><path class="cls-6" d="M80,48.59l-3-12.65H73.88a30.72,30.72,0,0,0,.86,5.55c.12-.58.23-1.16.34-1.74h.07a63.35,63.35,0,0,0,1.22,6.4,29.81,29.81,0,0,0,4.7,7.42C80.74,52,80.36,50.27,80,48.59Z"/><path class="cls-6" d="M102.31,55.91a13.83,13.83,0,0,1,3.22-1v-19h-3.22Z"/><path class="cls-7" d="M108,60.86h8.21v-2.7h-8A24.16,24.16,0,0,0,108,60.86Z"/><path class="cls-7" d="M130.75,36.07a25.21,25.21,0,0,0-11,3.82V60.77a53.36,53.36,0,0,0,5.85.29c4.84,0,8.69-1.26,11-3.59s3.59-5.62,3.59-9.69-1.29-6.92-3.51-9A11.69,11.69,0,0,0,130.75,36.07Zm-4.5,22.4a20.18,20.18,0,0,1-3.26-.18V38.6a18.68,18.68,0,0,1,3.77-.33c6.81,0,10.14,3.74,10.11,9.62C136.87,54.62,133.13,58.47,126.25,58.47Z"/><path class="cls-5" d="M157.14,37.55c-1.55-1.26-3.62-1.82-6.84-1.82a31.77,31.77,0,0,0-5.89.52V38.4a27,27,0,0,1,3.22,1.86V38.44a13,13,0,0,1,2.85-.23c3.26,0,5.48,1.15,5.48,4.07a3.85,3.85,0,0,1-2.41,3.58,24,24,0,0,1,1.63,2.39c.1-.21.22-.4.32-.6l-.5-.15v-.07q.42-.16.81-.36a29.57,29.57,0,0,1,3.39-5s0-.1,0-.16A5.21,5.21,0,0,0,157.14,37.55Z"/><path class="cls-6" d="M155.5,47.65c-.1.2-.21.39-.31.6a25.24,25.24,0,0,1,3.39,9.89,6.64,6.64,0,0,0,1.56-4.39A6.34,6.34,0,0,0,155.5,47.65Z"/><path class="cls-6" d="M159.2,42.12a29.44,29.44,0,0,0-3.38,5A5.79,5.79,0,0,0,159.2,42.12Z"/><path class="cls-4" d="M189.26,35.94l-.73,2.15a29.39,29.39,0,0,0,.88,6.4l.4-1.19c.48-1.52.89-3,1.26-4.51h.07c.37,1.44.74,2.92,1.3,4.55l2.44,7.18h-3.22c.43.86.91,1.7,1.42,2.51h2.47l1.81,5.33a30.27,30.27,0,0,0,2.9,2.52h1.39l-8.51-24.94Z"/></svg>