<svg width="24" height="24" viewBox="0 0 24 24" fill="none" xmlns="http://www.w3.org/2000/svg">
<path fill-rule="evenodd" clip-rule="evenodd" d="M23.3172 8H0.6828C2.33015 3.33923 6.7751 0 12 0C17.2249 0 21.6698 3.33923 23.3172 8Z" fill="white"/>
<path fill-rule="evenodd" clip-rule="evenodd" d="M22.9119 17C23.6105 15.4779 24 13.7844 24 12C24 10.5975 23.7594 9.25112 23.3172 8H0.682823C0.240616 9.25112 0 10.5975 0 12C0 13.7844 0.389488 15.4779 1.08809 17H22.9119Z" fill="#2C58F1"/>
<path fill-rule="evenodd" clip-rule="evenodd" d="M22.9119 17C21.0159 21.1311 16.843 24 12 24C7.157 24 2.98409 21.1311 1.08807 17H22.9119Z" fill="#E72525"/>
</svg>
