<svg width="38" height="38" viewBox="0 0 38 38" fill="none" xmlns="http://www.w3.org/2000/svg">
<g clip-path="url(#clip0_2_47)">
<path d="M11.4 30.4C9.31 30.4 7.6 32.11 7.6 34.2C7.6 36.29 9.31 38 11.4 38C13.49 38 15.2 36.29 15.2 34.2C15.2 32.11 13.49 30.4 11.4 30.4ZM0 0V3.8H3.8L10.64 18.24L7.98 22.8C7.79 23.37 7.6 24.13 7.6 24.7C7.6 26.79 9.31 28.5 11.4 28.5H34.2V24.7H12.16C11.97 24.7 11.78 24.51 11.78 24.32V24.1299L13.49 20.8999H27.55C29.07 20.8999 30.21 20.1399 30.78 18.9999L37.62 6.65C38 6.27 38 6.08 38 5.7C38 4.56 37.24 3.8 36.1 3.8H7.98L6.27 0H0ZM30.4 30.4C28.31 30.4 26.6 32.11 26.6 34.2C26.6 36.29 28.31 38 30.4 38C32.49 38 34.2 36.29 34.2 34.2C34.2 32.11 32.49 30.4 30.4 30.4Z" fill="white"/>
</g>
<defs>
<clipPath id="clip0_2_47">
<rect width="38" height="38" fill="white"/>
</clipPath>
</defs>
</svg>
